<?xml version="1.0" encoding="utf-8"?>
<!-- Generator: Adobe Illustrator 22.1.0, SVG Export Plug-In . SVG Version: 6.00 Build 0)  -->
<svg version="1.1" id="Layer_1" xmlns="http://www.w3.org/2000/svg" xmlns:xlink="http://www.w3.org/1999/xlink" x="0px" y="0px"
	 width="698px" height="1045px" viewBox="0 0 698 1045" enable-background="new 0 0 698 1045" xml:space="preserve">
<g>
	<path fill="#FFFFFF" d="M45.676,520.284c-21.62,0-36.146,14.82-36.146,36.878v6.218c0,1.381,1.119,2.5,2.5,2.5h21.578
		c1.381,0,2.5-1.119,2.5-2.5v-8.961c0-4.188,1.101-11.214,8.472-11.214c5.136,0,7.74,4.204,7.74,12.494
		c0,18.843-16.217,42.536-43.084,81.79c-0.285,0.416-0.437,0.908-0.437,1.412v17.737c0,1.381,1.119,2.5,2.5,2.5h63.087
		c1.381,0,2.5-1.119,2.5-2.5v-18.652c0-1.381-1.119-2.5-2.5-2.5H39.183c33.887-47.871,39.714-63.15,39.714-83.444
		C78.897,533.937,64.615,520.284,45.676,520.284z"/>
	<path fill="#FFFFFF" d="M125.038,520.284c-23.663,0-34.684,12.299-34.684,38.707v63.27c0,26.407,11.021,38.706,34.684,38.706
		s34.684-12.299,34.684-38.706v-63.27C159.721,532.583,148.7,520.284,125.038,520.284z M116.932,553.322
		c0-6.902,2.576-10.117,8.106-10.117s8.106,3.215,8.106,10.117v74.607c0,9.068-4.626,10.117-8.106,10.117s-8.106-1.049-8.106-10.117
		V553.322z"/>
</g>
<g>
	<path fill="#FFFFFF" d="M601.451,520.284h-12.673c-0.555,0-1.095,0.185-1.533,0.525c-7.079,5.495-16.321,10.805-29.086,16.712
		c-0.885,0.409-1.45,1.294-1.45,2.269v12.252c0,1.381,1.119,2.5,2.5,2.5h17.213v102.097c0,1.381,1.119,2.5,2.5,2.5h22.529
		c1.381,0,2.5-1.119,2.5-2.5V522.784C603.951,521.403,602.832,520.284,601.451,520.284z"/>
	<path fill="#FFFFFF" d="M668.23,520.284h-12.673c-0.555,0-1.095,0.185-1.533,0.525c-7.079,5.495-16.321,10.805-29.086,16.712
		c-0.885,0.409-1.45,1.294-1.45,2.269v12.252c0,1.381,1.119,2.5,2.5,2.5h17.213v102.097c0,1.381,1.119,2.5,2.5,2.5h22.529
		c1.381,0,2.5-1.119,2.5-2.5V522.784C670.73,521.403,669.611,520.284,668.23,520.284z"/>
</g>
<g>
	<path fill="#FFFFFF" d="M317.701,1007.486H303.56v-49.9c0-1.381-1.119-2.5-2.5-2.5h-10.583c-1.381,0-2.5,1.119-2.5,2.5v61.617
		c0,1.381,1.119,2.5,2.5,2.5h27.224c1.381,0,2.5-1.119,2.5-2.5v-9.217C320.201,1008.605,319.082,1007.486,317.701,1007.486z"/>
	<path fill="#FFFFFF" d="M367.965,1007.486h-14.143v-49.9c0-1.381-1.119-2.5-2.5-2.5H340.74c-1.381,0-2.5,1.119-2.5,2.5v61.617
		c0,1.381,1.119,2.5,2.5,2.5h27.225c1.381,0,2.5-1.119,2.5-2.5v-9.217C370.465,1008.605,369.346,1007.486,367.965,1007.486z"/>
	<path fill="#FFFFFF" d="M412.852,980.653h10.582c1.381,0,2.5-1.119,2.5-2.5v-4.523c0-11.783-7.146-19.397-18.203-19.397
		c-11.369,0-18.715,7.179-18.715,18.288v31.748c0,11.109,7.346,18.288,18.715,18.288c11.058,0,18.203-7.179,18.203-18.288v-7.084
		c0-1.381-1.119-2.5-2.5-2.5h-10.582c-1.381,0-2.5,1.119-2.5,2.5v7.425c0,3.73-1.1,3.73-2.621,3.73
		c-2.116,0-3.133-0.184-3.133-4.328v-31.234c0-4.145,1.017-4.328,3.133-4.328c2.432,0,2.621,3.77,2.621,4.925v4.779
		C410.352,979.534,411.471,980.653,412.852,980.653z"/>
</g>
<g id="icon">
	<g>
		<path fill="#404041" d="M466.551,615.935c0-63.106-51.158-114.262-114.263-114.262c-63.104,0-114.263,51.156-114.263,114.262
			c0,63.105,51.158,85.479,114.263,85.479C415.392,701.414,466.551,679.04,466.551,615.935z"/>
		<path fill="#231F20" d="M352.288,504.028c15.107,0,29.761,2.959,43.556,8.794c13.325,5.637,25.294,13.706,35.572,23.984
			c10.279,10.278,18.349,22.247,23.985,35.572c5.835,13.795,8.794,28.45,8.794,43.557c0,28.737-10.9,50.415-32.398,64.431
			c-9.724,6.34-21.686,11.141-35.552,14.269c-13.015,2.936-27.804,4.424-43.958,4.424c-16.152,0-30.941-1.489-43.955-4.425
			c-13.866-3.128-25.827-7.929-35.552-14.269c-21.499-14.017-32.4-35.695-32.4-64.43c0-15.109,2.959-29.764,8.793-43.559
			c5.636-13.326,13.706-25.294,23.984-35.572c10.278-10.278,22.246-18.347,35.572-23.984
			C322.524,506.986,337.18,504.028,352.288,504.028 M352.288,501.673C352.284,501.673,352.292,501.673,352.288,501.673
			c-63.104,0-114.263,51.156-114.263,114.262c0,63.102,51.164,85.479,114.263,85.479c0.004,0-0.004,0,0,0
			c63.104,0,114.263-22.374,114.263-85.479C466.551,552.833,415.387,501.673,352.288,501.673L352.288,501.673z"/>
	</g>
	<g>
		<path fill="#404041" d="M497.595,520.142c-15.772-29.264-48.189-42.406-72.405-29.355c-7.603,4.098-13.494,10.292-17.51,17.766
			c11.06,5.706,21.133,13.065,30.029,21.961c11.092,11.092,19.802,24.011,25.887,38.397c4.309,10.186,7.163,20.806,8.539,31.716
			c3.496-0.832,6.906-2.11,10.166-3.867C506.517,583.707,513.365,549.404,497.595,520.142z"/>
		<path fill="#231F20" d="M445.495,488.097c19.533,0,39.17,13.017,50.027,33.163c15.129,28.072,8.696,61.011-14.34,73.427
			c-2.251,1.213-4.624,2.206-7.081,2.963c-1.514-10.181-4.314-20.145-8.338-29.656c-6.203-14.667-15.083-27.837-26.391-39.145
			c-8.455-8.455-18.013-15.592-28.441-21.239c3.839-6.305,9.116-11.376,15.375-14.749
			C432.172,489.7,438.628,488.097,445.495,488.097 M445.495,485.742c-7.034,0-13.951,1.621-20.305,5.045
			c-7.603,4.098-13.494,10.292-17.51,17.766c11.06,5.706,21.133,13.065,30.029,21.961c11.092,11.092,19.802,24.011,25.887,38.397
			c4.309,10.186,7.163,20.806,8.539,31.716c3.496-0.832,6.906-2.11,10.166-3.867c24.217-13.053,31.065-47.356,15.295-76.617
			C485.962,498.557,465.27,485.742,445.495,485.742L445.495,485.742z"/>
	</g>
	<g>
		<path fill="#404041" d="M240.98,568.911c6.085-14.386,14.794-27.305,25.887-38.397c8.896-8.896,18.969-16.255,30.029-21.961
			c-4.017-7.474-9.907-13.668-17.51-17.766c-24.216-13.051-56.633,0.091-72.405,29.355c-15.77,29.261-8.922,63.564,15.295,76.617
			c3.26,1.757,6.669,3.035,10.166,3.867C233.817,589.716,236.671,579.097,240.98,568.911z"/>
		<path fill="#231F20" d="M259.08,488.097c6.867,0,13.323,1.603,19.188,4.763c6.259,3.373,11.536,8.444,15.375,14.749
			c-10.428,5.648-19.986,12.784-28.441,21.239c-11.308,11.308-20.187,24.478-26.391,39.145c-4.023,9.512-6.823,19.475-8.338,29.656
			c-2.456-0.757-4.829-1.75-7.081-2.963c-23.036-12.416-29.468-45.355-14.34-73.427C219.91,501.114,239.547,488.097,259.08,488.097
			 M259.08,485.742c-19.776,0-40.466,12.813-52.1,34.4c-15.77,29.261-8.922,63.564,15.295,76.617
			c3.26,1.757,6.669,3.035,10.166,3.867c1.376-10.91,4.23-21.529,8.538-31.715c6.085-14.386,14.794-27.305,25.887-38.397
			c8.896-8.896,18.969-16.255,30.029-21.961c-4.017-7.474-9.907-13.668-17.51-17.766
			C273.033,487.364,266.113,485.742,259.08,485.742L259.08,485.742z"/>
	</g>
	<g>
		<path fill="#FFFFFF" d="M298.489,610.894c0-9.032-7.322-16.354-16.354-16.354c-9.032,0-16.354,7.322-16.354,16.354
			c0,9.032,7.322,16.354,16.354,16.354C291.167,627.248,298.489,619.926,298.489,610.894z"/>
		<path fill="#221F1F" d="M282.135,594.54c9.031,0,16.354,7.323,16.354,16.354c0,9.032-7.322,16.354-16.354,16.354
			c-0.001,0,0.001,0,0,0c-9.031,0-16.354-7.323-16.354-16.354C265.78,601.862,273.103,594.54,282.135,594.54
			C282.135,594.54,282.134,594.54,282.135,594.54 M282.135,592.185c-4.997,0-9.696,1.946-13.229,5.48
			c-3.534,3.534-5.48,8.232-5.48,13.229c0,10.316,8.393,18.709,18.709,18.709c10.316,0,18.709-8.393,18.709-18.709
			C300.843,600.578,292.451,592.185,282.135,592.185L282.135,592.185z"/>
	</g>
	<g>
		<path fill="#FFFFFF" d="M406.087,610.894c0-9.032,7.322-16.354,16.354-16.354c9.032,0,16.354,7.322,16.354,16.354
			c0,9.032-7.322,16.354-16.354,16.354C413.409,627.248,406.087,619.926,406.087,610.894z"/>
		<path fill="#221F1F" d="M422.441,594.54c9.032,0,16.354,7.322,16.354,16.354c0,9.032-7.322,16.354-16.354,16.354
			c-9.032,0-16.354-7.322-16.354-16.354C406.087,601.862,413.409,594.54,422.441,594.54 M422.441,592.185
			c-4.997,0-9.695,1.946-13.229,5.48c-3.534,3.534-5.48,8.232-5.48,13.229c0,10.316,8.393,18.709,18.709,18.709
			c10.316,0,18.709-8.393,18.709-18.709C441.15,600.578,432.757,592.185,422.441,592.185L422.441,592.185z"/>
	</g>
	<g>
		<ellipse fill="#FFFFFF" cx="352.288" cy="657.802" rx="49.717" ry="34.988"/>
		<path fill="#221F1F" d="M352.288,693.967c-28.063,0-50.894-16.224-50.894-36.165c0-19.942,22.831-36.166,50.894-36.166
			c28.063,0,50.894,16.224,50.894,36.166C403.182,677.743,380.351,693.967,352.288,693.967z M352.288,623.991
			c-26.765,0-48.54,15.167-48.54,33.811c0,18.643,21.775,33.81,48.54,33.81c26.765,0,48.54-15.167,48.54-33.81
			C400.827,639.159,379.053,623.991,352.288,623.991z"/>
	</g>
	<path fill="#231F20" d="M323.504,678.081v-3.925c26.821,0,26.821-9.578,26.821-28.661h3.925
		C354.25,664.413,354.25,678.081,323.504,678.081z"/>
	<path fill="#231F20" d="M381.071,678.081c-30.746,0-30.746-13.668-30.746-32.586h3.925c0,19.082,0,28.661,26.821,28.661V678.081z"
		/>
	<path fill="#231F20" d="M373.22,645.495c0-6.45-9.371-11.679-20.932-11.679s-20.932,5.229-20.932,11.679
		c0,6.45,20.932,11.679,20.932,11.679S373.22,651.945,373.22,645.495z"/>
	<path fill="none" stroke="#231F20" stroke-width="8.334" stroke-miterlimit="10" d="M386.825,666.933"/>
</g>
<g id="hangul_-_outlined">
	<g>
		<path fill="#FFFFFF" d="M236.646,38.281l-0.223-0.082l-0.228-0.064c-0.926-0.26-1.886-0.542-2.882-0.834
			c-6.186-1.814-13.886-4.073-23.621-4.447l-0.489-0.019l-0.486,0.061c-2.967,0.371-5.09,0.83-6.682,1.446
			c-4.925,1.904-5.457,5.628-5.457,7.141c0,6.077,6.947,8.205,9.608,8.95c8.643,3.244,12.642,6.079,13.881,7.289v96.569
			c-15.153,3.762-35.878,7.188-48.747,8.958v-3.097c8.061-1.774,15.006-5.349,20.3-10.486c6.235-6.049,9.668-13.835,9.668-21.922
			c0-12.015-8.319-26.849-31.186-31.786c0.001-0.069,0.002-0.139,0.002-0.209v-1.013v-1.191c11.356-0.537,20.117-0.907,29.436-0.907
			c3.682,0,7.16,0,10.122-0.732c5.154-1.274,8.23-4.909,8.23-9.724c0-2.427-0.939-8.301-9.633-10.433
			c-3.387-0.831-6.839-0.831-8.313-0.831c-11.123,0-14.132,1.367-17.17,3.297c-0.735,0.467-0.969,0.616-2.221,0.8
			c-8.739,0.969-30.868,3.192-49.861,3.192c-7.412,0-12.775-0.231-17.349-0.748c-2.612-0.469-4.457-0.67-6.14-0.67
			c-8.587,0-8.834,6.477-8.834,7.216c0,4.091,3.171,7.03,11.701,10.843c2.134,0.954,9.401,4.066,13.333,4.066
			c2.61,0,4.493-0.824,6.006-1.487c0.982-0.43,1.914-0.838,3.338-1.183c3.451-0.193,6.502-0.427,9.208-0.636
			c2.097-0.162,4.002-0.308,5.826-0.417c0.091,0.112,0.175,0.22,0.251,0.324c-23.528,5.208-32.047,19.901-32.047,32.43
			c0,8.273,3.574,16.234,10.063,22.416c5.606,5.341,12.973,8.988,21.527,10.695v5.138c-11.722,1.46-23.631,2.729-33.688,2.729
			c-6.668,0-12.482-0.561-17.281-1.668l-0.247-0.057l-0.25-0.036l-0.671-0.098c-1.347-0.198-2.51-0.368-3.623-0.368
			c-6.814,0-8.633,4.535-8.633,7.215c0,4.031,2.712,7.614,16.574,14.005c2.308,1.064,14.064,6.373,18.787,6.373
			c3.296,0,5.369-1.269,6.883-2.195c0.651-0.398,1.186-0.726,1.901-1.005c26.589-4.238,63.08-11.14,92.738-20.747v50.345v0.1
			l0.003,0.1c0.123,3.687,0.575,6.38,1.421,8.475c1.423,3.523,4.269,5.626,7.614,5.626c4.56,0,8.396-3.62,11.402-10.759l0.166-0.393
			l0.108-0.413c3.385-12.905,3.638-25.497,3.638-43.235V54.239c0-1.064,0.19-2.008,0.391-3.007c0.206-1.026,0.42-2.086,0.42-3.271
			C245.229,41.445,239.432,39.308,236.646,38.281z M177.543,126.933c0,3.471-1.507,6.725-4.243,9.163
			c-3.437,3.063-8.578,4.681-14.865,4.681c-12.851,0-18.704-7.177-18.704-13.844c0-6.765,5.853-14.046,18.704-14.046
			C171.563,112.886,177.543,120.167,177.543,126.933z M141.682,89.612c0.109-0.008,0.219-0.017,0.328-0.025
			C141.901,89.595,141.791,89.604,141.682,89.612z"/>
		<path fill="#FFFFFF" d="M128.077,62.198c5.655,3.847,10.103,5.797,13.221,5.797h0.049l0.049-0.001l24.908-0.405l0.113-0.002
			l0.113-0.006c4.389-0.237,7.978-1.048,10.666-2.411c5.366-2.72,5.945-6.95,5.945-8.642c0-4.532-3.74-10.091-14.279-10.844
			l-0.214-0.015h-0.214c-25.526,0-28.311,0-36.508-1.14c-0.581-0.107-1.118-0.213-1.61-0.311c-1.622-0.321-2.903-0.575-4.204-0.575
			c-5.003,0-7.62,3.528-7.62,7.013C118.491,53.264,119.652,56.467,128.077,62.198z M174.328,53.094
			c0.411,0.206,0.778,0.429,1.101,0.664c0.484,0.352,0.867,0.732,1.147,1.129c0.187,0.264,0.328,0.535,0.422,0.81
			c-0.094-0.275-0.235-0.546-0.422-0.81c-0.28-0.396-0.663-0.776-1.147-1.129C175.106,53.523,174.739,53.3,174.328,53.094
			c-0.617-0.31-1.332-0.583-2.144-0.808C172.996,52.511,173.711,52.785,174.328,53.094z M170.434,51.902
			c-0.626-0.104-1.293-0.183-2.002-0.234C169.141,51.719,169.808,51.798,170.434,51.902z"/>
		<path fill="#FFFFFF" d="M327.286,93.23c4.839,5.797,9.575,11.552,13.569,16.406c3.765,4.576,7.021,8.533,9.313,11.251
			c3.964,5.001,7.906,6.054,10.522,6.054c5.408,0,9.644-4.77,9.644-10.86c0-1.529-0.329-2.861-0.57-3.834l-0.125-0.504l-0.219-0.513
			c-6.65-15.082-11.815-18.589-18.386-21.898c-1.432-0.721-2.787-1.403-4.201-2.383c-2.776-2.158-5.456-4.706-8.564-8.171
			c2.195-3.346,4.388-6.939,6.192-10.16c4.41-7.874,5.018-10.746,5.018-12.677c0-3.742-1.921-6.92-5.709-9.446l-0.128-0.085
			l-0.132-0.079c-9.597-5.711-17.032-9.754-25.342-9.754c-6.723,0-8.716,3.494-9.305,5.577c-1.002,3.538,0.772,7.137,4.75,9.664
			c2.465,1.761,6.449,4.613,8.552,6.443c-10.701,23.242-26.284,42.875-46.348,58.389c-4.289,2.808-6.375,5.671-6.375,8.746
			c0,3.882,3.015,6.809,7.013,6.809c5.341,0,18.024-9.144,21.784-11.947C305.718,114.684,316.44,105.7,327.286,93.23z
			 M332.298,81.08c1.042,1.204,2.066,2.348,3.089,3.438C334.364,83.428,333.34,82.284,332.298,81.08z M363.236,119.614
			c0.178-0.226,0.34-0.474,0.479-0.748C363.576,119.14,363.413,119.388,363.236,119.614z M363.93,113.652
			c0.1,0.405,0.201,0.81,0.277,1.215C364.131,114.463,364.03,114.058,363.93,113.652c-1.816-4.119-3.468-7.231-5.018-9.634
			C360.462,106.421,362.114,109.533,363.93,113.652z M353.298,97.63c0.598,0.46,1.2,0.98,1.81,1.583
			c0.814,0.804,1.642,1.756,2.498,2.912c-0.856-1.156-1.685-2.107-2.498-2.912C354.498,98.61,353.896,98.09,353.298,97.63
			c-0.399-0.307-0.796-0.587-1.193-0.848C352.502,97.043,352.9,97.323,353.298,97.63z M338.264,67.375
			c-1.981,3.421-4.286,7.083-6.466,10.291C333.978,74.458,336.283,70.796,338.264,67.375c0.543-0.938,1.054-1.85,1.539-2.738
			C339.318,65.524,338.807,66.436,338.264,67.375z M340.936,62.509c0.395-0.769,0.741-1.484,1.057-2.165
			C341.677,61.025,341.331,61.74,340.936,62.509z M338.864,50.554c0.519,0.306,1.045,0.618,1.576,0.934
			c0.304,0.202,0.579,0.402,0.828,0.598c0.747,0.59,1.26,1.155,1.602,1.705c0.456,0.734,0.608,1.443,0.608,2.151l0,0
			c0-0.708-0.152-1.417-0.608-2.151c-0.342-0.551-0.855-1.115-1.602-1.705c-0.249-0.197-0.524-0.396-0.828-0.598
			C339.909,51.171,339.383,50.86,338.864,50.554c-1.039-0.612-2.053-1.203-3.048-1.768c-0.671-0.381-1.33-0.745-1.984-1.1
			c0.654,0.355,1.313,0.719,1.984,1.1C336.811,49.35,337.826,49.941,338.864,50.554z M314.597,44.096
			c0.006,0.215,0.074,0.443,0.193,0.676C314.672,44.539,314.604,44.311,314.597,44.096z M276.302,123.929
			c0.304-0.329,0.696-0.696,1.19-1.095C276.998,123.233,276.606,123.6,276.302,123.929c-0.304,0.329-0.519,0.62-0.658,0.867
			C275.783,124.549,275.998,124.258,276.302,123.929z"/>
		<path fill="#FFFFFF" d="M425.866,17.096c-4.455-1.973-11.804-3.919-23.126-6.123l-0.697-0.136l-0.71,0.031
			c-10.632,0.461-12.22,5.349-12.22,8.222c0,2.162,1.001,6.052,7.587,8.211c9.427,4.746,11.846,7.088,12.46,8.026V78.48
			l-13.312,0.426V38.73c0-0.383,0.103-0.876,0.223-1.448c0.171-0.82,0.385-1.841,0.385-3.007c0-6.459-6.001-8.704-7.973-9.442
			c-3.819-1.429-9.957-2.797-20.521-4.575l-0.724-0.122l-0.732,0.056c-2.964,0.228-5.214,0.596-6.877,1.125
			c-5.335,1.698-5.75,5.697-5.75,6.882c0,4.721,4.309,6.875,7.771,8.606l0.094,0.047l0.095,0.044
			c6.045,2.763,9.36,4.765,9.858,5.953v69.181c0,4.072,0.562,7.42,1.669,9.95c1.638,3.74,4.696,5.973,8.181,5.973
			c6.847,0,11.927-8.278,13.258-21.603l0.01-0.098l0.007-0.099l0.649-9.721l13.752-0.33l0.139,13.761l0.001,0.056l0.002,0.056
			c0.117,4.066,0.715,7.418,1.778,9.962c2.336,5.589,6.419,6.193,8.067,6.193c7.321,0,12.378-9.748,12.883-24.833l0.002-0.047
			l0.001-0.047l1.215-68.24l0.001-0.053v-0.053c0-0.407,0.143-1.05,0.295-1.73c0.23-1.03,0.516-2.311,0.516-3.737
			C434.12,20.751,427.907,18,425.866,17.096z"/>
		<path fill="#FFFFFF" d="M426.529,130.434c-2.098-0.786-5.001-1.262-9.12-1.494c-1.543-0.229-2.808-0.229-3.667-0.229
			c-4.082,0-6.259,0.797-8.307,1.684c-0.963,0.417-1.254,0.543-2.427,0.543h-0.148l-0.148,0.007
			c-15.771,0.78-39.028,1.816-58.83,1.816c-13.797,0-23.617-0.505-30.02-1.543c-1.676-0.281-2.851-0.281-3.795-0.281
			c-6.814,0-8.633,4.408-8.633,7.013c0,3.373,1.945,6.421,11.63,11.181c3.602,1.771,10.344,4.742,15.024,4.742
			c3.192,0,5.404-1.019,7.183-1.837c1.677-0.772,3.127-1.44,6.238-1.611c22.295-0.719,49.057-1.708,63.804-2.347v50.62
			c0,3.377,0.506,6.052,1.546,8.179c1.565,3.2,4.441,5.11,7.694,5.11c5.389,0,10.043-5.034,12.45-13.465l0.033-0.117l0.029-0.118
			c3.206-13.243,3.208-25.122,3.208-53.807c0.055-0.297,0.395-1.017,0.622-1.498c0.625-1.325,1.404-2.975,1.404-5.032
			C432.298,136.341,431.736,132.385,426.529,130.434z"/>
		<path fill="#FFFFFF" d="M633.772,111.842c-5.263-0.959-10.503-1.034-11.984-1.034c-5.597,0-8.317,1.055-10.947,2.076
			c-2.26,0.877-4.818,1.87-11.057,2.604c-1.507,0.096-2.955,0.188-4.348,0.276c1.77-0.875,3.603-2.544,5.849-5.238l0.191-0.229
			l0.167-0.246c7.248-10.691,10.993-24.752,14.958-39.638c0.778-2.922,1.582-5.941,2.408-8.905c0.234-0.608,0.841-1.453,1.38-2.203
			c1.221-1.701,2.741-3.818,2.741-6.686c0-3.083-1.662-7.062-9.579-8.509c-3.48-0.636-7.371-0.731-9.38-0.731
			c-4.151,0-6.078,0.555-7.998,1.225c-0.854,0.298-1.418,0.495-2.992,0.616l-0.074,0.006l-0.074,0.008
			c-9.379,0.957-47.067,3.209-68.439,3.209c-10.863,0-19.76-0.455-26.445-1.352c-2.81-0.465-4.836-0.673-6.561-0.673
			c-7.998,0-8.229,6.114-8.229,6.811c0,2.714,0.89,5.618,11.64,11.26c4.579,2.403,11.007,5.268,15.621,5.268
			c2.769,0,4.902-0.734,6.785-1.381c1.469-0.505,2.858-0.983,4.904-1.297c18.57-1.9,51.537-3.572,70.205-4.073
			c-1.26,16.674-3.946,28.85-6.706,39.549l-0.026,0.1l-0.022,0.101c-0.511,2.306-0.75,4.07-0.75,5.551
			c0,4.353,2.218,6.881,4.825,7.813c-12.516,0.781-20.36,1.198-29.008,1.328l0.943-21.842l0.006-0.129v-0.129
			c0-0.734,0.132-1.514,0.272-2.339c0.158-0.935,0.338-1.995,0.338-3.128c0-4.684-2.815-7.883-8.368-9.505
			c-3.74-1.093-9.663-1.891-20.443-2.753l-0.511-0.041l-0.511,0.047c-2.74,0.249-4.904,0.707-6.617,1.4
			c-4.801,1.942-5.319,5.545-5.319,7.005c0,3.82,2.857,6.636,8.491,8.368l0.193,0.059l0.196,0.046
			c4.895,1.152,7.009,1.997,7.921,2.525l-0.153,21.134c-11.712,0.513-20.648,0.746-28.465,0.746
			c-14.954,0-26.719-0.716-38.079-2.319c-2.028-0.516-3.712-0.516-4.646-0.516c-1.772,0-3.246,0.307-4.508,0.938
			c-2.419,1.21-3.921,3.615-3.921,6.276c0,5.823,6.977,9.737,14.516,13.099c1.967,0.877,12.072,5.254,17.807,5.254
			c3.467,0,5.862-1.06,7.976-1.996c1.354-0.599,2.751-1.218,4.794-1.723c26.423-2.828,61.211-4.582,90.906-4.582
			c14.226,0,27.449,0.415,38.24,1.199l0.217,0.016h0.218h2.025c10.706,0,14.505-5.523,14.505-10.253
			C648.846,119.87,646.231,114.112,633.772,111.842z"/>
		<path fill="#FFFFFF" d="M626.667,166.649c0.194-0.405,0.568-0.994,0.878-1.482c0.995-1.566,2.233-3.514,2.233-6.038
			c0-2.617-1.274-7.224-9.804-8.674c-3.003-0.51-6.129-0.565-7.334-0.565c-3.665,0-5.593,0.656-7.404,1.386
			c-0.831,0.335-1.304,0.526-2.623,0.644l-54.814,0.992c-4.494-1.158-14.53-2.618-23.647-2.618c-3.551,0-6.46,0.384-8.646,1.141
			c-5.437,1.883-5.859,5.901-5.859,7.088c0,3.972,3.243,7.089,8.911,8.581c4.588,1.614,7.251,2.811,7.922,3.559l2.819,43.125
			l0.008,0.119l0.012,0.118c0.793,7.531,3.316,16.509,10.828,16.509c2.53,0,8.171-1.304,10.877-12.222l64.698-0.941
			c2.656-0.004,4.926-0.357,6.746-1.05c5.091-1.938,5.486-5.983,5.486-7.177c0-5.191-4.9-8.078-9.345-9.687
			c0.914-3.753,2.065-8.427,3.325-13.54C623.383,180.044,625.006,173.454,626.667,166.649z M551.267,169.924l49.877-1.019
			l-2.096,30.527c-2.065,0.565-3.057,0.717-7.574,1.085l-39.574,0.875L551.267,169.924z"/>
	</g>
</g>
<g>
	<path fill="#FFFFFF" d="M201.656,363.501c-0.115-0.653-0.485-1.233-1.028-1.614c-0.543-0.38-1.216-0.529-1.868-0.414l-48.744,8.595
		c-0.653,0.115-1.233,0.485-1.614,1.028c-0.38,0.543-0.529,1.215-0.414,1.868l4.149,23.531c0.115,0.653,0.485,1.233,1.028,1.614
		c0.543,0.38,1.215,0.528,1.868,0.414l16.508-2.911l2.53,14.347c1.478,8.384,1.406,14.004-0.226,17.688
		c-1.52,3.43-4.555,5.375-9.841,6.307c-5.34,0.94-11.781,0.227-14.249-13.765l-15.708-89.083c-1.095-6.212-0.768-10.922,0.974-14
		c1.351-2.386,3.595-3.826,6.859-4.402c9.676-1.705,15.41,2.098,19.911,27.621c0.24,1.36,1.536,2.268,2.896,2.028l28.333-4.996
		c0.653-0.115,1.233-0.485,1.614-1.028c0.38-0.543,0.529-1.215,0.414-1.868l-1.948-11.046c-2.438-13.828-8.813-25.558-17.951-33.028
		c-10.114-8.27-23.25-11.268-37.989-8.667c-28.042,4.945-42.917,26.543-37.896,55.023l15.75,89.322
		c2.471,14.015,8.623,25.135,17.789,32.159c6.935,5.313,15.208,8.03,24.272,8.03c2.773,0,5.622-0.255,8.527-0.767
		c13.81-2.435,20.617-8.412,26.951-18.417l5.633,8.651c0.548,0.84,1.545,1.273,2.529,1.098l14.407-2.541
		c1.36-0.24,2.268-1.536,2.028-2.896L201.656,363.501z"/>
	<path fill="#FFFFFF" d="M327.828,361.637c16.346-10.238,18.552-31.043,17.437-46.996c-1.344-19.216-6.754-32.559-16.539-40.789
		c-9.321-7.841-22.675-11.031-40.83-9.766l-42.321,2.959c-0.662,0.046-1.277,0.354-1.712,0.854s-0.653,1.153-0.607,1.814
		l12.28,175.609c0.092,1.318,1.19,2.326,2.492,2.326c0.059,0,0.118-0.002,0.177-0.006l30.16-2.109
		c1.377-0.097,2.416-1.291,2.32-2.668l-4.861-69.518c4.131-0.343,8.18-0.812,11.231-1.299l25.764,69.277
		c0.387,1.039,1.413,1.694,2.518,1.623l30.647-2.143c0.796-0.056,1.519-0.489,1.943-1.166c0.424-0.677,0.5-1.516,0.203-2.257
		L327.828,361.637z M283.739,343.568l-3.427-49.009l8.208-0.574c7.805-0.548,12.664,0.598,15.744,3.71
		c3.301,3.334,5.16,9.5,5.853,19.403c1.186,16.945-1.157,24.706-18.169,25.896L283.739,343.568z"/>
	<path fill="#FFFFFF" d="M645.175,315.132c-0.216-0.783-0.799-1.413-1.563-1.688l-28.906-10.404
		c-1.04-0.375-2.197-0.022-2.854,0.862l-37.419,50.402l2.465-63.017c0.043-1.089-0.626-2.081-1.651-2.45l-28.905-10.404
		c-0.763-0.273-1.614-0.162-2.28,0.304c-0.665,0.466-1.063,1.226-1.066,2.039l-0.434,108.766l-24.626,68.418
		c-0.468,1.299,0.207,2.731,1.506,3.199l28.447,10.239c0.274,0.099,0.561,0.148,0.847,0.148c0.364,0,0.729-0.08,1.064-0.238
		c0.6-0.283,1.063-0.792,1.288-1.416l24.625-68.418l68.985-84.093C645.213,316.754,645.391,315.915,645.175,315.132z"/>
	<path fill="#FFFFFF" d="M497.305,375.719l-11.487-0.585l-10.015-105.22c-0.114-1.201-1.069-2.148-2.271-2.254l-37.406-3.272
		c-1.188-0.099-2.307,0.662-2.628,1.825l-28.935,104.781l-22.545-1.149c-0.087-0.004-0.173-0.007-0.259-0.007
		c-2.645,0-4.853,2.074-4.989,4.746l-1.292,25.359c-0.068,1.324,0.394,2.621,1.283,3.606c0.889,0.984,2.132,1.575,3.456,1.642
		l14.696,0.749l-9.062,32.814c-0.197,0.716-0.066,1.482,0.356,2.092c0.424,0.609,1.097,1,1.836,1.064l29.147,2.55
		c1.232,0.107,2.378-0.717,2.655-1.936l7.95-34.909l29.016,1.479l1.82,36.824c0.062,1.248,1.035,2.258,2.279,2.367l29.146,2.55
		c0.073,0.006,0.146,0.009,0.218,0.009c0.663,0,1.303-0.264,1.774-0.739c0.523-0.527,0.785-1.259,0.714-1.998l-3.556-37.364
		l6.296,0.321c0.087,0.004,0.173,0.007,0.259,0.007c2.645,0,4.853-2.074,4.989-4.746l1.292-25.359
		c0.067-1.324-0.394-2.621-1.283-3.605C499.872,376.377,498.629,375.786,497.305,375.719z M436.664,372.629l13.627-54.724
		l3.871,55.616L436.664,372.629z"/>
</g>
<g>
	<path fill="#898989" d="M173.609,720.854l-44.182-7.79c-1.359-0.243-2.656,0.669-2.896,2.027L95.963,888.455
		c-0.115,0.653,0.034,1.325,0.414,1.868c0.38,0.544,0.961,0.913,1.614,1.028l47.062,8.298c4.198,0.74,8.201,1.106,12.005,1.106
		c24.857,0,41.13-15.662,46.322-45.104c3.499-19.842-0.868-34.199-13.727-44.752c14.249-5.488,21.724-20.25,24-33.158
		C219.307,745.676,205.834,726.536,173.609,720.854z M168.853,848.572c-3.03,17.183-9.814,23.209-23.414,20.815l-10.024-1.768
		l8.531-48.382l7.144,1.259C166.735,823.257,171.882,831.391,168.853,848.572z M178.404,774.745
		c-1.094,6.204-3.738,10.994-7.647,13.853c-3.631,2.656-8.225,3.587-13.282,2.695l-8.344-1.471l7.346-41.658l8.823,1.556
		c5.803,1.023,9.665,3.48,11.809,7.512C179.293,761.341,179.729,767.232,178.404,774.745z"/>
	<path fill="#898989" d="M333.378,745.259l-80.64-7.055c-1.371-0.125-2.588,0.896-2.708,2.272l-15.343,175.368
		c-0.058,0.66,0.149,1.316,0.576,1.825c0.426,0.508,1.037,0.825,1.697,0.883l84.041,7.353c0.073,0.007,0.146,0.01,0.218,0.01
		c0.585,0,1.155-0.206,1.607-0.585c0.508-0.426,0.826-1.037,0.884-1.697l2.295-26.232c0.12-1.375-0.897-2.588-2.273-2.708
		l-51.431-4.5l4.069-46.513l36.372,3.183c0.66,0.062,1.317-0.149,1.825-0.575s0.826-1.037,0.884-1.697l2.295-26.232
		c0.12-1.375-0.897-2.588-2.273-2.708l-36.372-3.183l3.517-40.197l48.03,4.202c0.659,0.059,1.317-0.149,1.825-0.575
		c0.508-0.426,0.826-1.037,0.883-1.697l2.295-26.232c0.058-0.66-0.149-1.316-0.576-1.825
		C334.649,745.634,334.039,745.316,333.378,745.259z"/>
	<path fill="#898989" d="M472.907,876.675l5.158-0.728c2.734-0.386,4.638-2.915,4.253-5.649l-3.546-25.144
		c-0.185-1.313-0.884-2.499-1.944-3.296c-0.872-0.656-1.928-1.005-3.007-1.005c-0.232,0-0.466,0.016-0.698,0.049l-9.716,1.37
		l-27.736-100.437c-0.321-1.164-1.438-1.938-2.628-1.825l-37.405,3.272c-1.201,0.104-2.156,1.053-2.271,2.253L383.08,853.602
		l-24.263,3.422c-2.734,0.386-4.638,2.915-4.253,5.649l3.546,25.144c0.185,1.313,0.884,2.499,1.944,3.296
		c0.872,0.656,1.929,1.005,3.007,1.005c0.232,0,0.466-0.016,0.698-0.049l15.871-2.239l-3.227,33.899
		c-0.071,0.739,0.19,1.472,0.714,1.998c0.472,0.476,1.111,0.739,1.774,0.739c0.072,0,0.146-0.003,0.218-0.01l29.147-2.551
		c1.244-0.108,2.218-1.119,2.279-2.367l1.796-36.321l15.441-2.178l13.29-1.163l8.259,36.27c0.277,1.219,1.43,2.053,2.655,1.936
		l29.147-2.551c0.739-0.064,1.412-0.454,1.836-1.064c0.423-0.609,0.554-1.376,0.356-2.091L472.907,876.675z M418.879,793.529
		l13.236,53.157l-17.104,2.413L418.879,793.529z"/>
	<path fill="#898989" d="M620.195,888.012l-38.05-72.165c15.187-11.892,15.205-32.813,12.428-48.562
		c-3.345-18.97-10.119-31.673-20.712-38.836c-10.09-6.823-23.706-8.604-41.627-5.444l-41.78,7.367
		c-1.359,0.239-2.268,1.536-2.027,2.896l30.569,173.364c0.115,0.652,0.484,1.233,1.028,1.613c0.423,0.296,0.924,0.452,1.434,0.452
		c0.145,0,0.29-0.013,0.435-0.038l29.773-5.25c1.359-0.239,2.268-1.536,2.027-2.896l-12.101-68.628
		c4.074-0.773,8.052-1.663,11.033-2.466l32.864,66.204c0.493,0.994,1.584,1.539,2.674,1.351l30.255-5.335
		c0.786-0.139,1.459-0.645,1.811-1.362C620.581,889.561,620.568,888.718,620.195,888.012z M544.512,801.057l-8.103,1.429
		l-8.531-48.381l8.104-1.43c13.574-2.393,20.244,0.031,23.895,20.729C562.825,790.132,561.307,798.095,544.512,801.057z"/>
</g>
</svg>
