<?xml version="1.0" encoding="utf-8"?>
<!-- Generator: Adobe Illustrator 27.6.1, SVG Export Plug-In . SVG Version: 6.00 Build 0)  -->
<svg version="1.1" id="Layer_1" xmlns="http://www.w3.org/2000/svg" xmlns:xlink="http://www.w3.org/1999/xlink" x="0px" y="0px"
	 viewBox="0 0 2355.37 252.85" style="enable-background:new 0 0 2355.37 252.85;" xml:space="preserve">
<style type="text/css">
	.st0{fill:#404041;}
	.st1{fill:#231F20;}
	.st2{fill:#FFFFFF;}
	.st3{fill:#221F1F;}
	.st4{fill:none;stroke:#231F20;stroke-width:8.334;stroke-miterlimit:10;}
	.st5{fill:#898989;}
</style>
<g id="icon">
	<g>
		<path class="st0" d="M320.41,153.1c0-73.12-59.27-132.39-132.39-132.39c-73.12,0-132.39,59.27-132.39,132.39
			c0,73.12,59.27,99.04,132.39,99.04S320.41,226.21,320.41,153.1z"/>
		<path class="st1" d="M188.02,23.43c17.5,0,34.48,3.43,50.47,10.19c15.44,6.53,29.31,15.88,41.22,27.79
			c11.91,11.91,21.26,25.78,27.79,41.22c6.76,15.98,10.19,32.96,10.19,50.47c0,33.3-12.63,58.41-37.54,74.65
			c-11.27,7.35-25.13,12.91-41.19,16.53c-15.08,3.4-32.22,5.13-50.93,5.13c-18.71,0-35.85-1.72-50.93-5.13
			c-16.07-3.62-29.93-9.19-41.19-16.53c-24.91-16.24-37.54-41.36-37.54-74.65c0-17.51,3.43-34.49,10.19-50.47
			c6.53-15.44,15.88-29.31,27.79-41.22c11.91-11.91,25.78-21.26,41.22-27.79C153.54,26.86,170.52,23.43,188.02,23.43 M188.02,20.71
			C188.02,20.71,188.03,20.71,188.02,20.71c-73.12,0-132.39,59.27-132.39,132.39c0,73.11,59.28,99.04,132.39,99.04c0,0,0,0,0,0
			c73.12,0,132.39-25.92,132.39-99.04C320.41,79.98,261.13,20.71,188.02,20.71L188.02,20.71z"/>
	</g>
	<g>
		<path class="st0" d="M356.38,42.1C338.11,8.2,300.55-7.03,272.49,8.09c-8.81,4.75-15.63,11.92-20.29,20.58
			c12.81,6.61,24.49,15.14,34.79,25.44c12.85,12.85,22.94,27.82,29.99,44.49c4.99,11.8,8.3,24.11,9.89,36.75
			c4.05-0.96,8-2.44,11.78-4.48C366.72,115.75,374.66,76.01,356.38,42.1z"/>
		<path class="st1" d="M296.02,4.98c22.63,0,45.38,15.08,57.96,38.42c17.53,32.53,10.08,70.69-16.61,85.08
			c-2.61,1.41-5.36,2.56-8.2,3.43c-1.75-11.8-5-23.34-9.66-34.36c-7.19-16.99-17.48-32.25-30.58-45.36
			c-9.8-9.8-20.87-18.07-32.95-24.61c4.45-7.31,10.56-13.18,17.81-17.09C280.58,6.83,288.06,4.98,296.02,4.98 M296.02,2.25
			c-8.15,0-16.16,1.88-23.53,5.85c-8.81,4.75-15.63,11.92-20.29,20.58c12.81,6.61,24.49,15.14,34.79,25.44
			c12.85,12.85,22.94,27.82,29.99,44.49c4.99,11.8,8.3,24.11,9.89,36.75c4.05-0.96,8-2.44,11.78-4.48
			c28.06-15.12,35.99-54.87,17.72-88.77C342.9,17.09,318.93,2.25,296.02,2.25L296.02,2.25z"/>
	</g>
	<g>
		<path class="st0" d="M59.05,98.61C66.1,81.94,76.2,66.97,89.05,54.12c10.31-10.31,21.98-18.83,34.79-25.44
			c-4.65-8.66-11.48-15.84-20.29-20.58C75.49-7.03,37.93,8.2,19.66,42.1c-18.27,33.9-10.34,73.65,17.72,88.77
			c3.78,2.04,7.73,3.52,11.78,4.48C50.75,122.72,54.06,110.41,59.05,98.61z"/>
		<path class="st1" d="M80.03,4.98c7.96,0,15.44,1.86,22.23,5.52c7.25,3.91,13.37,9.78,17.81,17.09
			c-12.08,6.54-23.16,14.81-32.95,24.61c-13.1,13.1-23.39,28.36-30.58,45.36c-4.66,11.02-7.91,22.56-9.66,34.36
			c-2.85-0.88-5.6-2.03-8.2-3.43C11.99,114.09,4.53,75.92,22.06,43.4C34.64,20.06,57.39,4.98,80.03,4.98 M80.03,2.25
			c-22.91,0-46.89,14.85-60.37,39.86c-18.27,33.9-10.34,73.65,17.72,88.77c3.78,2.04,7.73,3.52,11.78,4.48
			c1.59-12.64,4.9-24.94,9.89-36.75C66.1,81.94,76.2,66.97,89.05,54.12c10.31-10.31,21.98-18.83,34.79-25.44
			c-4.65-8.66-11.48-15.84-20.29-20.58C96.19,4.13,88.17,2.25,80.03,2.25L80.03,2.25z"/>
	</g>
	<g>
		<path class="st2" d="M125.69,147.26c0-10.46-8.48-18.95-18.95-18.95c-10.47,0-18.95,8.48-18.95,18.95
			c0,10.46,8.48,18.95,18.95,18.95C117.2,166.2,125.69,157.72,125.69,147.26z"/>
		<path class="st3" d="M106.74,128.31c10.46,0,18.95,8.48,18.95,18.95c0,10.46-8.48,18.95-18.95,18.95c0,0,0,0,0,0
			c-10.46,0-18.95-8.48-18.95-18.95C87.79,136.79,96.27,128.31,106.74,128.31C106.74,128.31,106.74,128.31,106.74,128.31
			 M106.74,125.58c-5.79,0-11.23,2.25-15.33,6.35c-4.09,4.09-6.35,9.54-6.35,15.33c0,11.95,9.72,21.68,21.68,21.68
			c11.95,0,21.68-9.72,21.68-21.68C128.42,135.3,118.69,125.58,106.74,125.58L106.74,125.58z"/>
	</g>
	<g>
		<path class="st2" d="M250.36,147.26c0-10.46,8.48-18.95,18.95-18.95s18.95,8.48,18.95,18.95c0,10.46-8.48,18.95-18.95,18.95
			C258.84,166.2,250.36,157.72,250.36,147.26z"/>
		<path class="st3" d="M269.3,128.31c10.47,0,18.95,8.48,18.95,18.95c0,10.46-8.48,18.95-18.95,18.95
			c-10.46,0-18.95-8.48-18.95-18.95C250.36,136.79,258.84,128.31,269.3,128.31 M269.3,125.58c-5.79,0-11.23,2.25-15.33,6.35
			c-4.09,4.09-6.35,9.54-6.35,15.33c0,11.95,9.72,21.68,21.68,21.68c11.95,0,21.68-9.72,21.68-21.68
			C290.98,135.3,281.26,125.58,269.3,125.58L269.3,125.58z"/>
	</g>
	<g>
		<ellipse class="st2" cx="188.02" cy="201.6" rx="57.6" ry="40.54"/>
		<path class="st3" d="M188.02,243.51c-32.52,0-58.97-18.8-58.97-41.9c0-23.11,26.45-41.9,58.97-41.9s58.97,18.8,58.97,41.9
			C246.99,224.71,220.54,243.51,188.02,243.51z M188.02,162.43c-31.01,0-56.24,17.57-56.24,39.18c0,21.6,25.23,39.17,56.24,39.17
			s56.24-17.57,56.24-39.17C244.26,180,219.03,162.43,188.02,162.43z"/>
	</g>
	<path class="st1" d="M154.67,225.1v-4.55c31.08,0,31.08-11.1,31.08-33.21h4.55C190.3,209.26,190.3,225.1,154.67,225.1z"/>
	<path class="st1" d="M221.37,225.1c-35.62,0-35.62-15.84-35.62-37.76h4.55c0,22.11,0,33.21,31.08,33.21V225.1z"/>
	<path class="st1" d="M212.27,187.35c0-7.47-10.86-13.53-24.25-13.53c-13.39,0-24.25,6.06-24.25,13.53
		c0,7.47,24.25,13.53,24.25,13.53S212.27,194.82,212.27,187.35z"/>
	<path class="st4" d="M228.04,212.18"/>
</g>
<g>
	<g>
		<g>
			<path class="st2" d="M1841.58,237.16c-6.27,0-6.58-9.46-6.7-13.03l0-67.5c-36.97,12.67-84.51,21.69-118.53,27.1
				c-1.48,0.52-2.49,1.14-3.48,1.74c-1.56,0.96-3.34,2.04-6.14,2.04c-4.04,0-15.57-4.83-21.11-7.38
				c-17.71-8.16-17.71-11.41-17.71-13.16c0-1.35,0.61-4.48,6.21-4.48c1.04,0,2.32,0.19,3.8,0.4l0.95,0.14l0.12,0.03
				c6.17,1.42,13.59,2.15,22.05,2.15c13.59,0,29.77-1.85,45.41-3.84v-13.72c-11.12-1.58-20.62-5.88-27.6-12.53
				c-7.05-6.72-10.93-15.32-10.93-24.22c0-14.23,10.45-31.08,39.66-36.11c0.21-0.39,0.36-0.91,0.36-1.67c0-1.9-1.39-4.31-3.78-6.58
				c-2.89,0.14-5.85,0.36-9.21,0.62c-3.38,0.26-7.2,0.55-11.52,0.79c-2.34,0.53-3.85,1.19-5.19,1.78c-1.7,0.75-3.31,1.45-5.59,1.45
				c-3.13,0-9.77-2.47-14.5-4.58c-11.72-5.24-11.72-7.87-11.72-9.28c0-1.67,0.84-4.48,6.46-4.48c1.81,0,3.87,0.23,6.86,0.77
				c5.78,0.66,12.5,0.96,21.79,0.96c23.47,0,50.77-2.75,61.41-3.93c2.45-0.35,3.28-0.88,4.43-1.61c3.08-1.96,6.23-3.35,18.63-3.35
				c8.02,0,17.57,1.63,17.57,9.42c0,8.44-9.6,8.44-18.07,8.44c-12.85,0-24.78,0.57-41.29,1.36l-1.95,0.09
				c0.88,0.97,1.82,2.2,2.74,4.15l0.29,0.61v1.91c0,1.6-0.47,2.79-0.92,3.67c11.8,1.88,21.56,6.13,28.38,12.36
				c6.82,6.24,10.58,14.4,10.58,22.99c0,17.96-14.9,32.46-36.55,35.95v12.28c15.77-2,47.27-7.03,68.09-12.5V23.89
				c-0.31-1.44-5.68-6.31-19.91-11.63c-5.88-1.65-8.74-3.88-8.74-6.81c0-4.81,6.63-5.64,11.02-6.19l0.24-0.03l0.24,0.01
				c11.34,0.44,20.45,3.11,27.76,5.25c1.23,0.36,2.42,0.71,3.56,1.03l0.11,0.03l0.11,0.04c3.87,1.43,7.64,3.2,7.64,7.76
				c0,1.01-0.21,2.05-0.43,3.14c-0.26,1.31-0.56,2.79-0.56,4.52v153.62c0,21.3-0.3,36.4-4.3,51.64l-0.05,0.21l-0.08,0.2
				C1849.5,231.47,1846.14,237.16,1841.58,237.16z M1755.39,88.23c-18.64,0-27.13,11.12-27.13,21.45c0,10.21,8.49,21.2,27.13,21.2
				c13.3,0,27.62-6.64,27.62-21.2C1783.01,99.35,1774.37,88.23,1755.39,88.23z M1734.48,33.48c-3.97,0-10.9-4.42-13.7-6.32
				c-9.8-6.67-9.8-9.46-9.8-10.51c0-1.95,1.3-4.23,4.98-4.23c1.16,0,2.54,0.27,4.29,0.62c0.64,0.13,1.35,0.27,2.11,0.41
				c10.36,1.44,13.71,1.44,45.22,1.44h0.11l0.11,0.01c9.9,0.71,13.41,5.25,13.41,8.92c0,2.49-1.58,8.38-16.18,9.17l-30.52,0.5
				H1734.48z"/>
			<path class="st2" d="M1817.62,2.25c12.84,0.49,22.72,3.95,30.63,6.17c4.69,1.73,5.68,2.96,5.68,4.94c0,1.73-0.99,4.2-0.99,7.66
				v153.62c0,20.99-0.25,35.81-4.2,50.88c-1.98,4.69-4.69,8.64-7.16,8.64c-1.98,0-3.46-2.72-3.71-10.13v-71.63
				c-33.84,12.1-80.27,21.73-122.26,28.4c-4.45,1.48-5.43,3.71-8.89,3.71c-5.19,0-35.81-13.09-35.81-17.54
				c0-0.99,0.99-1.48,3.21-1.48c0.99,0,2.47,0.25,4.2,0.49c6.42,1.48,14.08,2.22,22.72,2.22c14.32,0,31.12-1.98,48.41-4.2V145
				c-24.7-2.47-38.53-18.28-38.53-34.08c0-14.82,11.86-29.14,38.28-33.34c1.23-1.23,1.73-2.72,1.73-4.44c0-3.21-2.22-6.67-5.68-9.63
				c-6.42,0.25-13.09,0.99-22.23,1.48c-5.68,1.24-7.16,3.21-10.37,3.21c-4.45,0-23.22-7.9-23.22-10.87c0-0.99,0.99-1.48,3.46-1.48
				c1.73,0,3.71,0.25,6.42,0.74c6.42,0.74,13.58,0.99,22.23,0.99c22.23,0,48.41-2.47,61.74-3.95c8.65-1.24,2.96-4.94,22.72-4.94
				c2.96,0,14.57,0,14.57,6.42c0,5.43-6.92,5.43-15.07,5.43c-14.82,0-28.16,0.74-49.15,1.73c1.97,3.95,3.95,3.95,5.93,8.15v1.24
				c0,2.47-1.73,3.21-1.73,5.43v0.74c27.42,3.21,39.76,18.03,39.76,32.85c0,15.56-13.34,30.63-36.55,33.34v18.28
				c15.07-1.73,51.62-7.41,74.09-13.58V23.74c-0.25-3.95-9.39-9.63-21.98-14.33c-4.45-1.24-6.67-2.72-6.67-3.95
				C1809.23,3.98,1811.7,2.99,1817.62,2.25 M1755.39,133.89c20.5,0,30.63-12.1,30.63-24.2s-10.13-24.45-30.63-24.45
				c-20.01,0-30.13,12.35-30.13,24.45S1735.38,133.89,1755.39,133.89 M1715.96,15.41c1.24,0,3.21,0.49,5.93,0.99
				c10.62,1.48,14.08,1.48,45.69,1.48c6.91,0.49,10.62,3.21,10.62,5.93c0,2.96-4.2,5.68-13.34,6.17l-30.38,0.49
				c-4.69,0-20.5-10.87-20.5-13.83C1713.98,15.91,1714.48,15.41,1715.96,15.41 M1817.37-3.77l-0.49,0.06
				c-3.51,0.44-6,0.97-7.84,1.68c-5.25,2.03-5.81,5.91-5.81,7.48c0,6.47,7.85,8.83,10.81,9.66c11.01,4.13,16.48,8.01,17.84,9.61
				v119.35c-19.21,4.85-46.24,9.27-62.09,11.41v-6.36c10.03-2.03,18.66-6.36,25.16-12.67c7.35-7.13,11.39-16.29,11.39-25.79
				c0-14.34-10.14-32.09-38.12-37.71c0.05-0.41,0.08-0.85,0.08-1.31v-1.24v-1.34l-0.57-1.21c-0.02-0.04-0.04-0.08-0.06-0.13
				c14.8-0.7,25.95-1.2,37.85-1.2c4.41,0,8.57,0,12.03-0.85c8.16-2.02,9.04-8.07,9.04-10.58c0-2.65-1.05-9.07-10.75-11.45
				c-3.98-0.98-8.08-0.98-9.83-0.98c-13.21,0-16.72,1.58-20.24,3.82c-0.97,0.62-1.42,0.9-3.25,1.17c-10.67,1.18-37.74,3.9-60.98,3.9
				c-9.11,0-15.71-0.29-21.35-0.93c-3.13-0.56-5.32-0.8-7.3-0.8c-9,0-9.46,6.23-9.46,7.48c0,4.37,3.66,7.62,13.49,12.02
				c2.54,1.14,11.19,4.84,15.72,4.84c2.91,0,4.97-0.9,6.8-1.7c1.22-0.54,2.49-1.09,4.41-1.54c4.24-0.24,8-0.52,11.32-0.78
				c2.82-0.22,5.35-0.41,7.78-0.55c0.98,1.08,1.51,2,1.77,2.67c-29.27,5.84-39.81,23.57-39.81,38.64c0,9.73,4.21,19.1,11.86,26.39
				c6.88,6.56,16.03,10.97,26.67,12.91v8.52c-14.71,1.85-29.74,3.48-42.41,3.48c-8.23,0-15.42-0.7-21.37-2.07l-0.25-0.06l-0.25-0.04
				l-0.82-0.12c-1.59-0.23-2.97-0.44-4.23-0.44c-8.95,0-9.21,6.72-9.21,7.48c0,4.29,3.69,7.2,7.68,9.7
				c3.77,2.37,8.48,4.67,11.77,6.19c1.7,0.78,16.76,7.65,22.36,7.65c3.65,0,5.99-1.44,7.71-2.48c0.86-0.53,1.61-0.99,2.66-1.38
				c32.91-5.24,78.33-13.84,114.78-25.84v63.23v0.1l0,0.1c0.14,4.28,0.68,7.51,1.64,9.89c2.2,5.45,6.37,6.04,8.06,6.04
				c4.98,0,9.25-4.14,12.69-12.32l0.17-0.39l0.11-0.41c4.09-15.59,4.39-30.87,4.39-52.4V21.02c0-1.43,0.26-2.7,0.5-3.93
				c0.24-1.19,0.49-2.42,0.49-3.73c0-7.03-6.49-9.42-9.61-10.57l-0.22-0.08l-0.23-0.06c-1.13-0.32-2.31-0.66-3.53-1.02
				c-7.48-2.19-16.78-4.92-28.49-5.37L1817.37-3.77L1817.37-3.77z M1755.39,127.89c-11.62,0-24.13-5.7-24.13-18.2
				c0-8.89,7.55-18.45,24.13-18.45c11.86,0,24.63,5.77,24.63,18.45C1780.01,118.75,1772.4,127.89,1755.39,127.89L1755.39,127.89z
				 M1715.96,9.41c-5.48,0-7.98,3.75-7.98,7.24c0,1.76,0,5.43,11.12,12.99c4.59,3.12,10.98,6.84,15.38,6.84h0.05l0.05,0l30.38-0.49
				l0.11,0l0.11-0.01c17.16-0.93,19.01-8.82,19.01-12.17c0-4.96-4.24-11.06-16.19-11.91l-0.21-0.02h-0.21
				c-31.25,0-34.63,0-44.74-1.41c-0.73-0.13-1.4-0.27-2.01-0.39C1718.92,9.71,1717.42,9.41,1715.96,9.41L1715.96,9.41z"/>
		</g>
		<g>
			<path class="st2" d="M2067.78,235.93c-2.09,0-6.95-1.16-6.95-11.89v-66.26c-16.54,0.76-52.71,2.11-82.36,3.06
				c-4.61,0.24-6.94,1.32-9.2,2.36c-1.97,0.91-4.01,1.85-6.95,1.85c-5.16,0-13.87-4.09-16.42-5.34
				c-11.77-5.79-11.77-8.47-11.77-9.76c0-1.27,0.61-4.24,6.21-4.24c1.04,0,2.22,0,3.95,0.29c8.03,1.3,20.23,1.93,37.29,1.93
				c24.27,0,52.7-1.27,71.97-2.22l0.15,0c2.33,0,3.31-0.43,4.68-1.02c1.75-0.76,3.92-1.7,8.42-1.7c1.01,0,2.38,0,4.03,0.26
				c6.94,0.37,14.29,1.25,14.29,6.69c0,1.54-0.66,2.94-1.3,4.29c-0.58,1.22-1.17,2.48-1.17,3.61c0,34.67,0,49.01-3.79,64.67
				l-0.03,0.12C2076.51,230.71,2072.18,235.93,2067.78,235.93z M1899.34,138.62c-2.91,0-4.24-2.07-4.24-3.99
				c0-2.18,2-4.58,5.96-7.14c25.84-19.94,45.73-45.35,59.12-75.52l0.03-0.13c-1.29-2.07-8.34-7.12-13.14-10.54
				c-3.21-2.01-4.72-4.63-4.05-7.02c0.69-2.43,3.11-3.66,7.2-3.66c9.03,0,17.59,4.68,28.7,11.29l0.13,0.08
				c3.44,2.29,5.04,4.81,5.04,7.93c0,5.3-10.24,21.44-14.79,28.21c4.98,5.79,9.04,9.78,13.32,13.09c2.01,1.41,3.91,2.36,5.74,3.28
				c6.33,3.19,12.3,6.2,20.42,24.6l0.1,0.24l0.06,0.25c0.28,1.12,0.58,2.34,0.58,3.69c0,5.09-3.2,8.93-7.44,8.93
				c-3.26,0-6.46-1.95-9.49-5.8c-2.78-3.3-6.76-8.13-11.37-13.73c-5.78-7.02-12.83-15.59-19.86-23.97
				C1935,120.41,1904.49,138.62,1899.34,138.62z M2027.52,133.43c-2.31,0-7.7-1.47-7.7-15.1V33.51c-0.46-4-7.14-7.37-14.55-10.76
				l-0.09-0.05c-3.65-1.82-7.09-3.55-7.09-6.63c0-4.23,5.89-5.04,11.41-5.46l0.37-0.03l0.36,0.06c25.33,4.26,31.15,6.66,31.15,12.84
				c0,0.98-0.19,1.9-0.38,2.78c-0.19,0.89-0.36,1.74-0.36,2.65v53.46l24.87-0.79V24.07c-0.21-2.85-6.23-7.26-17.88-13.1
				c-3.06-0.96-6.57-2.76-6.57-6.01c0-3.48,3.62-5.4,10.77-5.71l0.35-0.02l0.35,0.07c29.58,5.76,34.78,9.68,34.78,15.79
				c0,1.26-0.27,2.46-0.53,3.62c-0.24,1.07-0.46,2.08-0.46,3.05l-1.48,83.29c-0.52,15.42-5.2,26.16-11.4,26.16
				c-2.18,0-7.29-1.51-7.69-15.51l-0.21-21.22l-25.09,0.6l-1.05,15.79C2038.05,124.41,2033.28,133.43,2027.52,133.43z"/>
			<path class="st2" d="M2051.97,2.25c27.91,5.43,32.35,8.89,32.35,12.84c0,1.98-0.99,4.2-0.99,6.67l-1.48,83.23
				c-0.5,14.82-4.94,23.22-8.4,23.22c-2.22,0-4.44-3.95-4.69-12.6l-0.24-24.2l-30.87,0.74l-1.24,18.53
				c-1.23,12.35-5.43,19.76-8.89,19.76c-2.47,0-4.7-3.71-4.7-12.1V33.37c-0.49-5.68-7.66-9.39-16.3-13.34
				c-2.47-1.24-5.43-2.72-5.43-3.95c0-0.99,2.22-1.98,8.64-2.47c24.95,4.2,28.65,6.42,28.65,9.88c0,1.48-0.74,3.21-0.74,5.43v56.56
				l30.87-0.99V23.98c-0.25-5.19-9.39-10.62-19.76-15.81c-2.47-0.74-4.69-1.98-4.69-3.21C2044.07,3.73,2046.29,2.49,2051.97,2.25
				 M1950.22,33.61c8.4,0,16.79,4.69,27.17,10.87c2.96,1.98,3.71,3.71,3.71,5.43c0,3.71-8.65,18.52-15.56,28.4
				c5.19,6.18,9.88,11.11,15.31,15.31c9.14,6.42,15.07,3.7,25.19,26.67c0.24,0.99,0.49,1.98,0.49,2.96c0,3.46-1.97,5.93-4.44,5.93
				c-1.98,0-4.45-1.24-7.16-4.69c-6.67-7.9-20.25-24.7-33.59-40.5c-27.17,33.84-58.29,51.62-61.99,51.62
				c-0.74,0-1.24-0.25-1.24-0.99c0-0.74,1.24-2.47,4.69-4.69c23.71-18.28,45.2-42.97,60.26-77.06l0.25-1.24
				c-0.25-2.47-5.93-6.67-14.57-12.84C1945.52,36.82,1943.79,33.61,1950.22,33.61 M2066.79,145.99c0.99,0,2.22,0,3.7,0.25
				c9.39,0.49,11.61,1.97,11.61,3.7c0,1.98-2.47,4.69-2.47,7.9c0,34.33,0,48.66-3.71,63.97c-1.97,6.92-5.43,11.11-8.15,11.11
				c-2.23,0-3.95-2.72-3.95-8.89v-69.4c-15.07,0.74-54.83,2.22-85.46,3.21c-9.39,0.49-10.87,4.2-16.06,4.2
				c-6.67,0-25.19-9.39-25.19-12.1c0-0.74,0.99-1.24,3.21-1.24c0.99,0,1.98,0,3.46,0.25c9.14,1.48,22.72,1.98,37.79,1.98
				c24.2,0,52.12-1.24,72.12-2.22C2059.88,148.71,2059.38,145.99,2066.79,145.99 M2052.42-3.78l-0.71,0.03
				c-3.36,0.15-5.98,0.6-8,1.39c-5.23,2.04-5.64,6.12-5.64,7.32c0,2.29,1.11,6.42,8.44,8.79c5.13,2.58,8.79,4.66,11.49,6.52
				c3.47,2.4,4.34,3.77,4.53,4.14v54.27l-18.87,0.6V28.92c0-0.6,0.14-1.27,0.3-2.04c0.21-0.99,0.44-2.11,0.44-3.4
				c0-6.96-6.67-9.46-8.87-10.28c-4.58-1.71-11.99-3.36-24.79-5.51l-0.72-0.12l-0.73,0.06c-3.51,0.27-6.16,0.7-8.09,1.31
				c-5.5,1.75-6.09,5.57-6.09,7.14c0,4.94,4.65,7.27,8.75,9.32l0.09,0.05l0.1,0.04c3.38,1.54,12.24,5.6,12.79,8.25v84.6
				c0,4.78,0.65,8.69,1.93,11.61c2.57,5.86,6.99,6.5,8.77,6.5c7.61,0,13.31-9.64,14.86-25.16l0.01-0.1l0.01-0.1l0.87-13.06
				l19.31-0.46l0.18,18.12l0,0.06l0,0.06c0.14,4.8,0.83,8.73,2.07,11.68c2.54,6.09,6.88,6.74,8.62,6.74
				c8.16,0,13.81-11.39,14.4-29.02l0-0.05l0-0.05l1.48-83.23l0-0.05v-0.05c0-0.64,0.19-1.49,0.39-2.4c0.28-1.25,0.6-2.68,0.6-4.27
				c0-1.79,0-7.24-9.28-11.35c-5.34-2.37-14.21-4.71-27.93-7.38L2052.42-3.78L2052.42-3.78z M1950.22,27.61
				c-7.33,0-9.46,3.66-10.08,5.84c-1.06,3.73,0.91,7.58,5.26,10.33c3.54,2.53,8.94,6.39,11.3,8.62
				c-13.16,28.95-32.45,53.37-57.37,72.63c-4.86,3.17-7.22,6.31-7.22,9.59c0,3.98,3.11,6.99,7.24,6.99
				c6.27,0,22.58-11.92,25.78-14.31c9.3-6.93,22.74-18.22,36.24-33.95c6.25,7.47,12.4,14.95,17.55,21.21
				c4.6,5.59,8.57,10.42,11.37,13.73c4.51,5.7,8.91,6.9,11.81,6.9c5.86,0,10.44-5.24,10.44-11.93c0-1.71-0.36-3.18-0.66-4.36
				l-0.12-0.5l-0.22-0.52c-7.95-18.04-13.8-22.03-21.81-26.06c-1.8-0.91-3.5-1.76-5.31-3.02c-3.66-2.84-7.18-6.22-11.32-10.91
				c2.84-4.29,5.72-8.98,8.06-13.16c5.95-10.63,5.95-13.46,5.95-14.82c0-4.15-2.09-7.56-6.38-10.43l-0.13-0.09l-0.13-0.08
				C1968.93,32.47,1960.02,27.61,1950.22,27.61L1950.22,27.61z M2066.79,139.99c-5.12,0-7.71,1.12-9.61,1.95
				c-1.22,0.53-1.78,0.77-3.48,0.77h-0.15l-0.15,0.01c-19.25,0.95-47.64,2.22-71.82,2.22c-16.9,0-28.95-0.62-36.83-1.9
				c-1.94-0.33-3.32-0.33-4.42-0.33c-8.95,0-9.21,6.49-9.21,7.24c0,3.51,2.29,6.97,13.45,12.45c3.45,1.7,12.1,5.65,17.74,5.65
				c3.6,0,6.16-1.18,8.21-2.12c2.08-0.96,4.05-1.86,8.1-2.08c27.9-0.9,61.54-2.15,79.2-2.92v63.12c0,13.82,7.62,14.89,9.95,14.89
				c5.86,0,11.19-5.93,13.92-15.47l0.03-0.12l0.03-0.12c3.88-16.01,3.88-30.46,3.88-65.38c0-0.45,0.53-1.58,0.88-2.33
				c0.71-1.5,1.59-3.36,1.59-5.57c0-8.63-11.26-9.38-16.98-9.68C2069.31,139.99,2067.81,139.99,2066.79,139.99L2066.79,139.99z"/>
		</g>
		<g>
			<path class="st2" d="M2220.98,218.89c-3.28,0-7.5-2.82-8.91-16.27l-3.46-52.92c-0.32-2.89-3.07-4.62-12.7-8
				c-2.01-0.52-7.81-2.36-7.81-6.33c0-2.14,1.74-5.72,13.37-5.72c10.82,0,23.44,1.82,28.32,3.2l67.61-1.22
				c2.36-0.2,3.4-0.61,4.59-1.09c1.6-0.65,3.41-1.38,7.42-1.38c11,0,16.58,2.34,16.58,6.95c0,1.82-1,3.39-2.05,5.05
				c-0.59,0.92-1.19,1.88-1.54,2.75c-2.05,8.41-4.06,16.55-5.84,23.8c-2.02,8.21-3.82,15.5-5.03,20.53
				c6.12,1.67,12.24,4.45,12.24,8.87c0,1.72-1.04,5.72-10.66,5.72l-82.38,1.2C2229.08,213.27,2225.45,218.89,2220.98,218.89z
				 M2231.08,192.08l52.72-1.17c6.95-0.57,7.76-0.79,11.56-1.86c0.47-0.13,0.99-0.28,1.56-0.44l3.09-44.99l-68.27,1.39
				c-0.25,0.17-0.49,0.32-0.73,0.46c-0.26,0.16-0.68,0.41-0.86,0.58L2231.08,192.08z M2159.76,110.46c-4.44,0-13.23-3.03-19.96-6.03
				c-15.15-6.75-15.15-10.59-15.15-12.03c0-1.05,0.43-4.48,5.96-4.48c1.05,0,2.77,0,4.82,0.55c14.14,2.01,28.74,2.91,47.3,2.91
				c10.49,0,22.61-0.34,39.01-1.1l0.23-31.37c-0.3-2.84-9.85-5.08-13-5.82l-0.19-0.05c-4.92-1.51-7.31-3.5-7.31-6.08
				c0-4.98,8-5.71,10.63-5.95l0.26-0.02l0.26,0.02c24.15,1.93,31.17,3.56,31.17,10.65c0,1.02-0.17,2.03-0.35,3.09
				c-0.19,1.14-0.39,2.32-0.39,3.57l-1.35,31.32c15.27-0.09,26.8-0.82,52.36-2.45l0.06,0c8.24-0.96,11.65-2.28,14.66-3.45
				c3.1-1.2,5.77-2.24,11.79-2.24c8.62,0,28.68,1.18,28.68,12.14c0,3.96-3.51,8.19-13.37,8.19h-2.58l-0.11-0.01
				c-13.27-0.96-29.5-1.47-46.96-1.47c-36.47,0-79.22,2.16-111.62,5.64c-3.02,0.72-5.05,1.62-6.85,2.42
				C2165.35,109.46,2163.08,110.46,2159.76,110.46z M2284.49,79.84c-2.07,0-4.48-1.5-4.48-5.72c0-1.46,0.27-3.37,0.81-5.84l0.02-0.1
				c3.68-14.24,7.24-30.6,8.63-53.75c-21.38,0.42-65.55,2.52-90.8,5.11c-2.94,0.44-5.01,1.15-6.84,1.78
				c-2.17,0.75-4.22,1.45-6.87,1.45c-5.19,0-13.65-4.15-17.05-5.93c-11.89-6.24-11.89-8.72-11.89-9.91c0-1.82,0.99-3.99,5.72-3.99
				c1.85,0,4.21,0.25,7.41,0.78c8.26,1.12,19.35,1.69,32.85,1.69c26.2,0,72.41-2.76,83.92-3.94c2.56-0.2,3.6-0.56,4.82-0.99
				c1.76-0.62,3.59-1.25,8.33-1.25c12.66,0,18.81,2.27,18.81,6.95c0,2.11-1.23,3.82-2.53,5.64c-0.9,1.25-1.83,2.55-2.29,3.89
				c-1.03,3.69-2.03,7.44-2.99,11.07c-4.74,17.79-9.22,34.6-17.65,47.03l-0.08,0.12l-0.09,0.11
				C2288,79.14,2286.01,79.84,2284.49,79.84z"/>
			<path class="st2" d="M2299.06,2.25c5.93,0,15.81,0.74,15.81,3.95c0,2.22-3.46,4.94-4.69,8.65c-5.93,21.24-10.37,42.73-20.25,57.3
				c-2.47,2.96-4.44,4.69-5.43,4.69s-1.48-0.99-1.48-2.72c0-1.24,0.25-2.96,0.74-5.19c3.95-15.31,7.66-32.6,8.89-57.55
				c-19.76,0.25-67.92,2.47-94.35,5.19c-6.67,0.99-9.14,3.21-13.34,3.21c-7.16,0-25.93-10.62-25.93-12.84
				c0-0.74,0.74-0.99,2.72-0.99c1.73,0,3.95,0.25,6.91,0.74c9.14,1.24,20.74,1.73,33.34,1.73c25.93,0,72.12-2.72,84.22-3.95
				C2292.64,3.98,2291.41,2.25,2299.06,2.25 M2212.37,43.99c24.7,1.98,28.41,3.71,28.41,7.66c0,1.73-0.74,3.95-0.74,6.67
				l-1.48,34.33c17.04,0,28.65-0.74,55.82-2.47c17.04-1.98,15.07-5.68,26.18-5.68c1.23,0,25.68,0,25.68,9.14
				c0,2.96-3.7,5.19-10.37,5.19h-2.47c-13.58-0.99-29.88-1.48-47.17-1.48c-37.3,0-80.02,2.22-112.13,5.68
				c-7.41,1.73-9.39,4.44-14.33,4.44c-7.16,0-32.11-10.37-32.11-15.07c0-0.99,0.99-1.48,2.96-1.48c0.99,0,2.47,0,4.2,0.49
				c15.56,2.22,30.87,2.96,47.91,2.96c12.6,0,26.43-0.49,41.99-1.24l0.25-34.33c-0.25-4.44-6.92-6.67-15.31-8.64
				c-3.21-0.99-5.19-2.22-5.19-3.21C2204.47,45.72,2206.94,44.48,2212.37,43.99 M2309.4,132.16c2.47,0,13.58,0.25,13.58,3.95
				c0,1.73-2.47,4.2-3.46,6.91c-4.94,20.25-9.63,39.02-11.61,47.42c8.89,1.98,12.84,4.69,12.84,6.67c0,1.48-2.72,2.72-7.66,2.72
				l-84.96,1.24c-1.24,9.63-4.45,14.82-7.16,14.82c-2.47,0-4.94-4.2-5.93-13.58l-3.46-52.85c-0.5-4.94-4.94-7.16-14.82-10.62
				c-2.96-0.74-5.68-2.22-5.68-3.46c0-0.99,2.47-2.72,10.37-2.72c11.36,0,23.96,1.98,27.91,3.21l68.17-1.23
				C2303.71,134.14,2302.97,132.16,2309.4,132.16 M2303.22,140.56l-72.61,1.48c-0.74,0.99-3.46,1.48-3.46,3.95l0.99,49.15
				l55.82-1.23c9.14-0.74,8.4-0.99,15.81-2.96L2303.22,140.56 M2299.06-3.75c-4.87,0-7.02,0.62-9.32,1.42
				c-1.1,0.38-1.89,0.66-3.98,0.82l-0.07,0.01l-0.07,0.01c-11.46,1.17-57.5,3.92-83.61,3.92c-13.32,0-24.24-0.56-32.45-1.66
				c-3.36-0.56-5.77-0.81-7.81-0.81c-1.25,0-2.72,0.07-4.12,0.57c-2.79,1-4.6,3.52-4.6,6.42c0,2.78,1.04,6.03,13.49,12.57
				c4.47,2.34,12.8,6.28,18.44,6.28c3.16,0,5.54-0.82,7.85-1.61c1.78-0.61,3.61-1.24,6.24-1.64c23.16-2.37,64.71-4.45,87.22-5.02
				c-1.49,21.19-4.86,36.5-8.32,49.92l-0.03,0.1l-0.02,0.1c-0.59,2.68-0.88,4.8-0.88,6.49c0,4.2,2.34,8.72,7.48,8.72
				c3.12,0,5.93-1.92,10.04-6.85l0.19-0.23l0.17-0.25c8.72-12.86,13.26-29.9,18.06-47.95c0.95-3.59,1.94-7.29,2.96-10.93
				c0.34-0.91,1.11-2,1.87-3.05c1.45-2.02,3.1-4.31,3.1-7.39c0-3.26-1.84-7.48-10.6-9.08C2306.13-3.64,2301.47-3.75,2299.06-3.75
				L2299.06-3.75z M2212.34,37.97l-0.51,0.05c-3.21,0.29-5.73,0.82-7.7,1.62c-5.11,2.07-5.66,5.81-5.66,7.32
				c0,6.05,7.09,8.23,9.43,8.95l0.19,0.06l0.2,0.05c7.3,1.72,9.83,2.96,10.68,3.65l-0.2,27.75c-14.92,0.67-26.2,0.97-36.03,0.97
				c-18.34,0-32.76-0.88-46.7-2.85c-2.35-0.61-4.32-0.61-5.41-0.61c-7.08,0-8.96,4.7-8.96,7.48c0,4.32,3.57,7.25,6.68,9.33
				c3.3,2.2,7.39,4.17,10.24,5.45c6.51,2.9,15.97,6.29,21.18,6.29c3.95,0,6.62-1.18,9.19-2.32c1.72-0.76,3.5-1.55,6.15-2.2
				c32.28-3.46,74.81-5.61,111.11-5.61c17.38,0,33.54,0.51,46.74,1.47l0.22,0.02h0.22h2.47c12.09,0,16.37-6.03,16.37-11.19
				c0-13.66-22.16-15.14-31.68-15.14c-6.58,0-9.64,1.19-12.88,2.44c-2.83,1.1-6.04,2.35-13.84,3.26c-23.7,1.51-35.3,2.25-49.02,2.41
				l1.21-28.04l0.01-0.13v-0.13c0-1.01,0.17-2.01,0.35-3.07c0.19-1.14,0.39-2.32,0.39-3.6c0-5.06-3.11-8.53-9.26-10.33
				c-4.47-1.31-11.62-2.27-24.67-3.31L2212.34,37.97L2212.34,37.97z M2309.4,126.16c-4.24,0-6.37,0.72-8.54,1.59
				c-1.07,0.43-1.78,0.72-3.62,0.88l-67.08,1.21c-5.28-1.4-17.54-3.2-28.69-3.2c-4.18,0-7.59,0.44-10.11,1.32
				c-5.65,1.96-6.26,5.83-6.26,7.4c0,4.21,3.62,7.55,9.94,9.21c5.38,1.89,10.32,3.84,10.58,5.42l3.45,52.7l0.01,0.12l0.01,0.12
				c0.91,8.65,3.71,18.96,11.9,18.96c2.84,0,9.25-1.57,12.22-14.89l79.95-1.16c12.63-0.02,13.61-6.67,13.61-8.72
				c0-4.66-3.91-8.32-11.66-10.92c1.16-4.77,2.68-10.93,4.35-17.73c1.77-7.2,3.76-15.28,5.8-23.62c0.26-0.59,0.76-1.38,1.21-2.08
				c1.18-1.86,2.52-3.96,2.52-6.66c0-3.39-1.88-7.75-10.86-9.28C2314.56,126.23,2310.83,126.16,2309.4,126.16L2309.4,126.16z
				 M2233.19,147.99l63.6-1.3l-2.72,39.6c-3.24,0.91-4.14,1.11-10.42,1.62l-49.63,1.1L2233.19,147.99L2233.19,147.99z"/>
		</g>
	</g>
	<g>
		<g>
			<path class="st2" d="M467.37,121.92h66.38V241.6h-19.62l-7.52-17.66c-12.1,14.39-21.91,20.93-40.87,20.93
				c-32.04,0-54.28-22.89-54.28-60.49V62.74c0-33.35,19.62-60.49,59.51-60.49c40.55,0,60.82,29.43,60.82,64.74v15.04H493.2
				c0-35.31-7.19-44.47-23.22-44.47c-9.81,0-17.98,5.89-17.98,25.83V184.7c0,15.04,4.91,24.85,18.96,24.85
				c16.35,0,22.24-9.16,22.24-32.7v-22.89h-25.83V121.92z"/>
			<path class="st2" d="M599.14,241.6H558.6V5.52h56.89c45.45,0,68.67,19.29,68.67,69.65c0,37.93-14.71,53.3-28.45,59.51
				l34.33,106.92h-41.2l-28.77-97.77c-5.23,0.65-13.73,0.98-20.93,0.98V241.6z M599.14,111.46h14.39c21.91,0,30.08-8.17,30.08-36.29
				c0-28.12-8.17-36.29-30.08-36.29h-14.39V111.46z"/>
			<path class="st2" d="M938.43,241.6h-40.55V143.5L848.84,5.52h41.2l28.45,89.92h0.65l27.14-89.92h41.2L938.43,143.5V241.6z"/>
		</g>
		<path class="st2" d="M882.89,153.97h-47.13L808.41,5.52h-50.36l-27.35,148.45h-47.38v35.11h40.91l-9.68,52.52h39.24l7.19-52.32
			h44.47l7.19,52.32h39.24l-9.68-52.52h40.66V153.97z M766.88,153.97L782.9,52.6h0.65l16.02,101.36H766.88z"/>
	</g>
	<g>
		<g>
			<g>
				<path class="st5" d="M1013.35,5.52h60.16c43.49,0,62.78,22.23,62.78,62.45c0,20.27-8.5,41.53-28.12,49.37
					c20.6,9.16,32.7,25.5,32.7,55.91c0,38.91-17.33,68.34-63.43,68.34h-64.09V5.52z M1053.9,102.3h14.71
					c15.37,0,27.14-10.46,27.14-30.08c0-21.91-8.5-33.35-26.49-33.35h-15.37V102.3z M1053.9,208.24h17
					c21.58,0,29.43-12.42,29.43-36.29c0-24.2-9.16-36.29-33.35-36.29h-13.08V208.24z"/>
				<path class="st5" d="M1160.49,241.6V5.52h108.56v35.31h-68.01v60.82h52.32v35.31h-52.32v69.32h72.59v35.31H1160.49z"/>
				<path class="st5" d="M1535.16,241.6h-40.54V5.52h56.89c45.45,0,68.67,19.29,68.67,69.65c0,37.93-14.71,53.3-28.45,59.51
					l34.33,106.92h-41.2l-28.77-97.77c-5.23,0.65-13.73,0.98-20.93,0.98V241.6z M1535.16,111.46h14.39
					c21.91,0,30.08-8.18,30.08-36.29c0-28.12-8.17-36.3-30.08-36.3h-14.39V111.46z"/>
			</g>
		</g>
		<g>
			<path class="st5" d="M1349.08,6.66l-27.35,148.45h-47.38v35.11h40.91l-9.68,52.52h39.24l7.19-52.32h44.47l7.19,52.32h39.24
				L1399.43,6.66H1349.08z M1357.9,155.11l16.02-101.36h0.65l16.02,101.36H1357.9z"/>
			<polygon class="st5" points="1426.68,154.39 1433.15,189.5 1474.06,189.5 1474.06,154.39 			"/>
		</g>
	</g>
</g>
</svg>
